<?xml version="1.0" encoding="utf-8" standalone="no"?>
<!DOCTYPE svg PUBLIC "-//W3C//DTD SVG 1.1//EN"
  "http://www.w3.org/Graphics/SVG/1.1/DTD/svg11.dtd">
<svg xmlns:xlink="http://www.w3.org/1999/xlink" width="460.8pt" height="345.6pt" viewBox="0 0 460.8 345.6" xmlns="http://www.w3.org/2000/svg" version="1.1">
 <metadata>
  <rdf:RDF xmlns:dc="http://purl.org/dc/elements/1.1/" xmlns:cc="http://creativecommons.org/ns#" xmlns:rdf="http://www.w3.org/1999/02/22-rdf-syntax-ns#">
   <cc:Work>
    <dc:type rdf:resource="http://purl.org/dc/dcmitype/StillImage"/>
    <dc:date>2024-05-06T18:01:46.320482</dc:date>
    <dc:format>image/svg+xml</dc:format>
    <dc:creator>
     <cc:Agent>
      <dc:title>Matplotlib v3.8.3, https://matplotlib.org/</dc:title>
     </cc:Agent>
    </dc:creator>
   </cc:Work>
  </rdf:RDF>
 </metadata>
 <defs>
  <style type="text/css">*{stroke-linejoin: round; stroke-linecap: butt}</style>
 </defs>
 <g id="figure_1">
  <g id="patch_1">
   <path d="M 0 345.6 
L 460.8 345.6 
L 460.8 0 
L 0 0 
z
" style="fill: #ffffff"/>
  </g>
  <g id="axes_1">
   <g id="patch_2">
    <path d="M 57.6 307.584 
L 414.72 307.584 
L 414.72 41.472 
L 57.6 41.472 
z
" style="fill: #ffffff"/>
   </g>
   <g id="PathCollection_1">
    <defs>
     <path id="md1806e4293" d="M 0 -1.732051 
L -0.38887 -0.535233 
L -1.647278 -0.535233 
L -0.629204 0.204441 
L -1.018074 1.401259 
L -0 0.661585 
L 1.018074 1.401259 
L 0.629204 0.204441 
L 1.647278 -0.535233 
L 0.38887 -0.535233 
z
" style="stroke: #508ca4"/>
    </defs>
    <g clip-path="url(#pba92da58e4)">
     <use xlink:href="#md1806e4293" x="81.848889" y="238.328878" style="fill: #508ca4; stroke: #508ca4"/>
     <use xlink:href="#md1806e4293" x="89.865051" y="237.79958" style="fill: #508ca4; stroke: #508ca4"/>
     <use xlink:href="#md1806e4293" x="97.881212" y="235.924354" style="fill: #508ca4; stroke: #508ca4"/>
     <use xlink:href="#md1806e4293" x="105.897374" y="269.715102" style="fill: #508ca4; stroke: #508ca4"/>
     <use xlink:href="#md1806e4293" x="113.913535" y="269.357353" style="fill: #508ca4; stroke: #508ca4"/>
     <use xlink:href="#md1806e4293" x="121.929697" y="250.754394" style="fill: #508ca4; stroke: #508ca4"/>
     <use xlink:href="#md1806e4293" x="129.945859" y="156.083612" style="fill: #508ca4; stroke: #508ca4"/>
     <use xlink:href="#md1806e4293" x="137.96202" y="248.760166" style="fill: #508ca4; stroke: #508ca4"/>
     <use xlink:href="#md1806e4293" x="145.978182" y="277.61345" style="fill: #508ca4; stroke: #508ca4"/>
     <use xlink:href="#md1806e4293" x="153.994343" y="232.289848" style="fill: #508ca4; stroke: #508ca4"/>
    </g>
   </g>
   <g id="PathCollection_2">
    <defs>
     <path id="m0cbccf3789" d="M -0 2.44949 
L 1.469694 0 
L 0 -2.44949 
L -1.469694 -0 
z
" style="stroke: #1d2d44"/>
    </defs>
    <g clip-path="url(#pba92da58e4)">
     <use xlink:href="#m0cbccf3789" x="81.848889" y="270.551963" style="fill: #1d2d44; stroke: #1d2d44"/>
     <use xlink:href="#m0cbccf3789" x="89.865051" y="269.328966" style="fill: #1d2d44; stroke: #1d2d44"/>
     <use xlink:href="#m0cbccf3789" x="97.881212" y="286.324107" style="fill: #1d2d44; stroke: #1d2d44"/>
     <use xlink:href="#m0cbccf3789" x="105.897374" y="269.730176" style="fill: #1d2d44; stroke: #1d2d44"/>
     <use xlink:href="#m0cbccf3789" x="113.913535" y="277.050988" style="fill: #1d2d44; stroke: #1d2d44"/>
     <use xlink:href="#m0cbccf3789" x="121.929697" y="262.960672" style="fill: #1d2d44; stroke: #1d2d44"/>
     <use xlink:href="#m0cbccf3789" x="129.945859" y="255.200517" style="fill: #1d2d44; stroke: #1d2d44"/>
     <use xlink:href="#m0cbccf3789" x="137.96202" y="268.826939" style="fill: #1d2d44; stroke: #1d2d44"/>
     <use xlink:href="#m0cbccf3789" x="145.978182" y="281.216237" style="fill: #1d2d44; stroke: #1d2d44"/>
     <use xlink:href="#m0cbccf3789" x="153.994343" y="256.24307" style="fill: #1d2d44; stroke: #1d2d44"/>
    </g>
   </g>
   <g id="PathCollection_3">
    <defs>
     <path id="mddd4aca513" d="M -0 1.732051 
L 1.732051 -1.732051 
L -1.732051 -1.732051 
z
" style="stroke: #cc7178"/>
    </defs>
    <g clip-path="url(#pba92da58e4)">
     <use xlink:href="#mddd4aca513" x="81.848889" y="151.165917" style="fill: #cc7178; stroke: #cc7178"/>
     <use xlink:href="#mddd4aca513" x="89.865051" y="151.397056" style="fill: #cc7178; stroke: #cc7178"/>
     <use xlink:href="#mddd4aca513" x="97.881212" y="240.370084" style="fill: #cc7178; stroke: #cc7178"/>
     <use xlink:href="#mddd4aca513" x="105.897374" y="269.730185" style="fill: #cc7178; stroke: #cc7178"/>
     <use xlink:href="#mddd4aca513" x="113.913535" y="269.716678" style="fill: #cc7178; stroke: #cc7178"/>
     <use xlink:href="#mddd4aca513" x="121.929697" y="259.620315" style="fill: #cc7178; stroke: #cc7178"/>
     <use xlink:href="#mddd4aca513" x="129.945859" y="103.712146" style="fill: #cc7178; stroke: #cc7178"/>
     <use xlink:href="#mddd4aca513" x="137.96202" y="133.978495" style="fill: #cc7178; stroke: #cc7178"/>
     <use xlink:href="#mddd4aca513" x="145.978182" y="279.190865" style="fill: #cc7178; stroke: #cc7178"/>
     <use xlink:href="#mddd4aca513" x="153.994343" y="53.568" style="fill: #cc7178; stroke: #cc7178"/>
    </g>
   </g>
   <g id="PathCollection_4">
    <defs>
     <path id="m2703d547b7" d="M 0 -1.732051 
L -1.732051 1.732051 
L 1.732051 1.732051 
z
" style="stroke: #89023e"/>
    </defs>
    <g clip-path="url(#pba92da58e4)">
     <use xlink:href="#m2703d547b7" x="81.848889" y="253.650126" style="fill: #89023e; stroke: #89023e"/>
     <use xlink:href="#m2703d547b7" x="89.865051" y="256.185713" style="fill: #89023e; stroke: #89023e"/>
     <use xlink:href="#m2703d547b7" x="97.881212" y="270.37163" style="fill: #89023e; stroke: #89023e"/>
     <use xlink:href="#m2703d547b7" x="105.897374" y="266.742976" style="fill: #89023e; stroke: #89023e"/>
     <use xlink:href="#m2703d547b7" x="113.913535" y="267.427361" style="fill: #89023e; stroke: #89023e"/>
     <use xlink:href="#m2703d547b7" x="121.929697" y="254.126574" style="fill: #89023e; stroke: #89023e"/>
     <use xlink:href="#m2703d547b7" x="129.945859" y="259.676377" style="fill: #89023e; stroke: #89023e"/>
     <use xlink:href="#m2703d547b7" x="137.96202" y="266.951496" style="fill: #89023e; stroke: #89023e"/>
     <use xlink:href="#m2703d547b7" x="145.978182" y="275.151138" style="fill: #89023e; stroke: #89023e"/>
     <use xlink:href="#m2703d547b7" x="153.994343" y="245.148259" style="fill: #89023e; stroke: #89023e"/>
    </g>
   </g>
   <g id="PathCollection_5">
    <g clip-path="url(#pba92da58e4)">
     <use xlink:href="#md1806e4293" x="162.010505" y="284.7647" style="fill: #508ca4; stroke: #508ca4"/>
     <use xlink:href="#md1806e4293" x="170.026667" y="281.82185" style="fill: #508ca4; stroke: #508ca4"/>
     <use xlink:href="#md1806e4293" x="178.042828" y="268.585877" style="fill: #508ca4; stroke: #508ca4"/>
     <use xlink:href="#md1806e4293" x="186.05899" y="261.85134" style="fill: #508ca4; stroke: #508ca4"/>
     <use xlink:href="#md1806e4293" x="194.075152" y="240.170333" style="fill: #508ca4; stroke: #508ca4"/>
     <use xlink:href="#md1806e4293" x="202.091313" y="244.401681" style="fill: #508ca4; stroke: #508ca4"/>
     <use xlink:href="#md1806e4293" x="210.107475" y="277.985474" style="fill: #508ca4; stroke: #508ca4"/>
     <use xlink:href="#md1806e4293" x="218.123636" y="244.217396" style="fill: #508ca4; stroke: #508ca4"/>
     <use xlink:href="#md1806e4293" x="226.139798" y="244.401681" style="fill: #508ca4; stroke: #508ca4"/>
     <use xlink:href="#md1806e4293" x="234.15596" y="282.945361" style="fill: #508ca4; stroke: #508ca4"/>
    </g>
   </g>
   <g id="PathCollection_6">
    <g clip-path="url(#pba92da58e4)">
     <use xlink:href="#m0cbccf3789" x="162.010505" y="284.920188" style="fill: #1d2d44; stroke: #1d2d44"/>
     <use xlink:href="#m0cbccf3789" x="170.026667" y="282.715513" style="fill: #1d2d44; stroke: #1d2d44"/>
     <use xlink:href="#m0cbccf3789" x="178.042828" y="278.7475" style="fill: #1d2d44; stroke: #1d2d44"/>
     <use xlink:href="#m0cbccf3789" x="186.05899" y="272.903997" style="fill: #1d2d44; stroke: #1d2d44"/>
     <use xlink:href="#m0cbccf3789" x="194.075152" y="272.60256" style="fill: #1d2d44; stroke: #1d2d44"/>
     <use xlink:href="#m0cbccf3789" x="202.091313" y="267.643197" style="fill: #1d2d44; stroke: #1d2d44"/>
     <use xlink:href="#m0cbccf3789" x="210.107475" y="285.317567" style="fill: #1d2d44; stroke: #1d2d44"/>
     <use xlink:href="#m0cbccf3789" x="218.123636" y="274.592765" style="fill: #1d2d44; stroke: #1d2d44"/>
     <use xlink:href="#m0cbccf3789" x="226.139798" y="268.167755" style="fill: #1d2d44; stroke: #1d2d44"/>
     <use xlink:href="#m0cbccf3789" x="234.15596" y="282.945361" style="fill: #1d2d44; stroke: #1d2d44"/>
    </g>
   </g>
   <g id="PathCollection_7">
    <g clip-path="url(#pba92da58e4)">
     <use xlink:href="#mddd4aca513" x="162.010505" y="285.121879" style="fill: #cc7178; stroke: #cc7178"/>
     <use xlink:href="#mddd4aca513" x="170.026667" y="282.932028" style="fill: #cc7178; stroke: #cc7178"/>
     <use xlink:href="#mddd4aca513" x="178.042828" y="272.807614" style="fill: #cc7178; stroke: #cc7178"/>
     <use xlink:href="#mddd4aca513" x="186.05899" y="246.827736" style="fill: #cc7178; stroke: #cc7178"/>
     <use xlink:href="#mddd4aca513" x="194.075152" y="224.551657" style="fill: #cc7178; stroke: #cc7178"/>
     <use xlink:href="#mddd4aca513" x="202.091313" y="229.717227" style="fill: #cc7178; stroke: #cc7178"/>
     <use xlink:href="#mddd4aca513" x="210.107475" y="277.408339" style="fill: #cc7178; stroke: #cc7178"/>
     <use xlink:href="#mddd4aca513" x="218.123636" y="261.986619" style="fill: #cc7178; stroke: #cc7178"/>
     <use xlink:href="#mddd4aca513" x="226.139798" y="234.960373" style="fill: #cc7178; stroke: #cc7178"/>
     <use xlink:href="#mddd4aca513" x="234.15596" y="282.94558" style="fill: #cc7178; stroke: #cc7178"/>
    </g>
   </g>
   <g id="PathCollection_8">
    <g clip-path="url(#pba92da58e4)">
     <use xlink:href="#m2703d547b7" x="162.010505" y="285.138037" style="fill: #89023e; stroke: #89023e"/>
     <use xlink:href="#m2703d547b7" x="170.026667" y="282.912836" style="fill: #89023e; stroke: #89023e"/>
     <use xlink:href="#m2703d547b7" x="178.042828" y="271.795802" style="fill: #89023e; stroke: #89023e"/>
     <use xlink:href="#m2703d547b7" x="186.05899" y="262.458344" style="fill: #89023e; stroke: #89023e"/>
     <use xlink:href="#m2703d547b7" x="194.075152" y="244.406056" style="fill: #89023e; stroke: #89023e"/>
     <use xlink:href="#m2703d547b7" x="202.091313" y="252.01479" style="fill: #89023e; stroke: #89023e"/>
     <use xlink:href="#m2703d547b7" x="210.107475" y="275.500595" style="fill: #89023e; stroke: #89023e"/>
     <use xlink:href="#m2703d547b7" x="218.123636" y="263.118015" style="fill: #89023e; stroke: #89023e"/>
     <use xlink:href="#m2703d547b7" x="226.139798" y="250.973071" style="fill: #89023e; stroke: #89023e"/>
     <use xlink:href="#m2703d547b7" x="234.15596" y="282.94558" style="fill: #89023e; stroke: #89023e"/>
    </g>
   </g>
   <g id="PathCollection_9">
    <g clip-path="url(#pba92da58e4)">
     <use xlink:href="#md1806e4293" x="242.172121" y="277.243081" style="fill: #508ca4; stroke: #508ca4"/>
     <use xlink:href="#md1806e4293" x="250.188283" y="270.594612" style="fill: #508ca4; stroke: #508ca4"/>
     <use xlink:href="#md1806e4293" x="258.204444" y="271.899228" style="fill: #508ca4; stroke: #508ca4"/>
     <use xlink:href="#md1806e4293" x="266.220606" y="284.041897" style="fill: #508ca4; stroke: #508ca4"/>
     <use xlink:href="#md1806e4293" x="274.236768" y="266.399025" style="fill: #508ca4; stroke: #508ca4"/>
     <use xlink:href="#md1806e4293" x="282.252929" y="244.403238" style="fill: #508ca4; stroke: #508ca4"/>
     <use xlink:href="#md1806e4293" x="290.269091" y="227.889436" style="fill: #508ca4; stroke: #508ca4"/>
     <use xlink:href="#md1806e4293" x="298.285253" y="256.516487" style="fill: #508ca4; stroke: #508ca4"/>
     <use xlink:href="#md1806e4293" x="306.301414" y="267.868357" style="fill: #508ca4; stroke: #508ca4"/>
     <use xlink:href="#md1806e4293" x="314.317576" y="276.064306" style="fill: #508ca4; stroke: #508ca4"/>
    </g>
   </g>
   <g id="PathCollection_10">
    <g clip-path="url(#pba92da58e4)">
     <use xlink:href="#m0cbccf3789" x="242.172121" y="280.56873" style="fill: #1d2d44; stroke: #1d2d44"/>
     <use xlink:href="#m0cbccf3789" x="250.188283" y="278.788079" style="fill: #1d2d44; stroke: #1d2d44"/>
     <use xlink:href="#m0cbccf3789" x="258.204444" y="278.284974" style="fill: #1d2d44; stroke: #1d2d44"/>
     <use xlink:href="#m0cbccf3789" x="266.220606" y="288.702226" style="fill: #1d2d44; stroke: #1d2d44"/>
     <use xlink:href="#m0cbccf3789" x="274.236768" y="278.613905" style="fill: #1d2d44; stroke: #1d2d44"/>
     <use xlink:href="#m0cbccf3789" x="282.252929" y="267.583262" style="fill: #1d2d44; stroke: #1d2d44"/>
     <use xlink:href="#m0cbccf3789" x="290.269091" y="262.218417" style="fill: #1d2d44; stroke: #1d2d44"/>
     <use xlink:href="#m0cbccf3789" x="298.285253" y="273.332429" style="fill: #1d2d44; stroke: #1d2d44"/>
     <use xlink:href="#m0cbccf3789" x="306.301414" y="268.613126" style="fill: #1d2d44; stroke: #1d2d44"/>
     <use xlink:href="#m0cbccf3789" x="314.317576" y="278.316858" style="fill: #1d2d44; stroke: #1d2d44"/>
    </g>
   </g>
   <g id="PathCollection_11">
    <g clip-path="url(#pba92da58e4)">
     <use xlink:href="#mddd4aca513" x="242.172121" y="275.041451" style="fill: #cc7178; stroke: #cc7178"/>
     <use xlink:href="#mddd4aca513" x="250.188283" y="276.300258" style="fill: #cc7178; stroke: #cc7178"/>
     <use xlink:href="#mddd4aca513" x="258.204444" y="276.670948" style="fill: #cc7178; stroke: #cc7178"/>
     <use xlink:href="#mddd4aca513" x="266.220606" y="285.859447" style="fill: #cc7178; stroke: #cc7178"/>
     <use xlink:href="#mddd4aca513" x="274.236768" y="271.043452" style="fill: #cc7178; stroke: #cc7178"/>
     <use xlink:href="#mddd4aca513" x="282.252929" y="257.527345" style="fill: #cc7178; stroke: #cc7178"/>
     <use xlink:href="#mddd4aca513" x="290.269091" y="246.203706" style="fill: #cc7178; stroke: #cc7178"/>
     <use xlink:href="#mddd4aca513" x="298.285253" y="273.151498" style="fill: #cc7178; stroke: #cc7178"/>
     <use xlink:href="#mddd4aca513" x="306.301414" y="267.563174" style="fill: #cc7178; stroke: #cc7178"/>
     <use xlink:href="#mddd4aca513" x="314.317576" y="278.286666" style="fill: #cc7178; stroke: #cc7178"/>
    </g>
   </g>
   <g id="PathCollection_12">
    <g clip-path="url(#pba92da58e4)">
     <use xlink:href="#m2703d547b7" x="242.172121" y="275.064424" style="fill: #89023e; stroke: #89023e"/>
     <use xlink:href="#m2703d547b7" x="250.188283" y="244.762269" style="fill: #89023e; stroke: #89023e"/>
     <use xlink:href="#m2703d547b7" x="258.204444" y="268.615617" style="fill: #89023e; stroke: #89023e"/>
     <use xlink:href="#m2703d547b7" x="266.220606" y="286.916543" style="fill: #89023e; stroke: #89023e"/>
     <use xlink:href="#m2703d547b7" x="274.236768" y="279.241215" style="fill: #89023e; stroke: #89023e"/>
     <use xlink:href="#m2703d547b7" x="282.252929" y="260.918579" style="fill: #89023e; stroke: #89023e"/>
     <use xlink:href="#m2703d547b7" x="290.269091" y="257.333522" style="fill: #89023e; stroke: #89023e"/>
     <use xlink:href="#m2703d547b7" x="298.285253" y="269.154643" style="fill: #89023e; stroke: #89023e"/>
     <use xlink:href="#m2703d547b7" x="306.301414" y="243.2896" style="fill: #89023e; stroke: #89023e"/>
     <use xlink:href="#m2703d547b7" x="314.317576" y="272.63567" style="fill: #89023e; stroke: #89023e"/>
    </g>
   </g>
   <g id="PathCollection_13">
    <g clip-path="url(#pba92da58e4)">
     <use xlink:href="#md1806e4293" x="322.333737" y="276.428626" style="fill: #508ca4; stroke: #508ca4"/>
     <use xlink:href="#md1806e4293" x="330.349899" y="273.504638" style="fill: #508ca4; stroke: #508ca4"/>
     <use xlink:href="#md1806e4293" x="338.366061" y="271.288287" style="fill: #508ca4; stroke: #508ca4"/>
     <use xlink:href="#md1806e4293" x="346.382222" y="269.868105" style="fill: #508ca4; stroke: #508ca4"/>
     <use xlink:href="#md1806e4293" x="354.398384" y="255.54805" style="fill: #508ca4; stroke: #508ca4"/>
     <use xlink:href="#md1806e4293" x="362.414545" y="253.678534" style="fill: #508ca4; stroke: #508ca4"/>
     <use xlink:href="#md1806e4293" x="370.430707" y="275.531316" style="fill: #508ca4; stroke: #508ca4"/>
     <use xlink:href="#md1806e4293" x="378.446869" y="276.280291" style="fill: #508ca4; stroke: #508ca4"/>
     <use xlink:href="#md1806e4293" x="386.46303" y="260.533407" style="fill: #508ca4; stroke: #508ca4"/>
     <use xlink:href="#md1806e4293" x="394.479192" y="259.507371" style="fill: #508ca4; stroke: #508ca4"/>
    </g>
   </g>
   <g id="PathCollection_14">
    <g clip-path="url(#pba92da58e4)">
     <use xlink:href="#m0cbccf3789" x="322.333737" y="280.682287" style="fill: #1d2d44; stroke: #1d2d44"/>
     <use xlink:href="#m0cbccf3789" x="330.349899" y="276.729188" style="fill: #1d2d44; stroke: #1d2d44"/>
     <use xlink:href="#m0cbccf3789" x="338.366061" y="275.668089" style="fill: #1d2d44; stroke: #1d2d44"/>
     <use xlink:href="#m0cbccf3789" x="346.382222" y="280.073375" style="fill: #1d2d44; stroke: #1d2d44"/>
     <use xlink:href="#m0cbccf3789" x="354.398384" y="269.540111" style="fill: #1d2d44; stroke: #1d2d44"/>
     <use xlink:href="#m0cbccf3789" x="362.414545" y="267.41101" style="fill: #1d2d44; stroke: #1d2d44"/>
     <use xlink:href="#m0cbccf3789" x="370.430707" y="277.589965" style="fill: #1d2d44; stroke: #1d2d44"/>
     <use xlink:href="#m0cbccf3789" x="378.446869" y="280.358436" style="fill: #1d2d44; stroke: #1d2d44"/>
     <use xlink:href="#m0cbccf3789" x="386.46303" y="270.334978" style="fill: #1d2d44; stroke: #1d2d44"/>
     <use xlink:href="#m0cbccf3789" x="394.479192" y="266.552365" style="fill: #1d2d44; stroke: #1d2d44"/>
    </g>
   </g>
   <g id="PathCollection_15">
    <g clip-path="url(#pba92da58e4)">
     <use xlink:href="#mddd4aca513" x="322.333737" y="277.010957" style="fill: #cc7178; stroke: #cc7178"/>
     <use xlink:href="#mddd4aca513" x="330.349899" y="275.730459" style="fill: #cc7178; stroke: #cc7178"/>
     <use xlink:href="#mddd4aca513" x="338.366061" y="274.971961" style="fill: #cc7178; stroke: #cc7178"/>
     <use xlink:href="#mddd4aca513" x="346.382222" y="275.160363" style="fill: #cc7178; stroke: #cc7178"/>
     <use xlink:href="#mddd4aca513" x="354.398384" y="249.786454" style="fill: #cc7178; stroke: #cc7178"/>
     <use xlink:href="#mddd4aca513" x="362.414545" y="247.464989" style="fill: #cc7178; stroke: #cc7178"/>
     <use xlink:href="#mddd4aca513" x="370.430707" y="275.801693" style="fill: #cc7178; stroke: #cc7178"/>
     <use xlink:href="#mddd4aca513" x="378.446869" y="270.66246" style="fill: #cc7178; stroke: #cc7178"/>
     <use xlink:href="#mddd4aca513" x="386.46303" y="248.679786" style="fill: #cc7178; stroke: #cc7178"/>
     <use xlink:href="#mddd4aca513" x="394.479192" y="265.606373" style="fill: #cc7178; stroke: #cc7178"/>
    </g>
   </g>
   <g id="PathCollection_16">
    <g clip-path="url(#pba92da58e4)">
     <use xlink:href="#m2703d547b7" x="322.333737" y="283.039547" style="fill: #89023e; stroke: #89023e"/>
     <use xlink:href="#m2703d547b7" x="330.349899" y="250.481049" style="fill: #89023e; stroke: #89023e"/>
     <use xlink:href="#m2703d547b7" x="338.366061" y="274.439797" style="fill: #89023e; stroke: #89023e"/>
     <use xlink:href="#m2703d547b7" x="346.382222" y="276.67301" style="fill: #89023e; stroke: #89023e"/>
     <use xlink:href="#m2703d547b7" x="354.398384" y="251.209785" style="fill: #89023e; stroke: #89023e"/>
     <use xlink:href="#m2703d547b7" x="362.414545" y="205.060966" style="fill: #89023e; stroke: #89023e"/>
     <use xlink:href="#m2703d547b7" x="370.430707" y="243.491088" style="fill: #89023e; stroke: #89023e"/>
     <use xlink:href="#m2703d547b7" x="378.446869" y="277.97833" style="fill: #89023e; stroke: #89023e"/>
     <use xlink:href="#m2703d547b7" x="386.46303" y="249.92371" style="fill: #89023e; stroke: #89023e"/>
     <use xlink:href="#m2703d547b7" x="394.479192" y="258.586201" style="fill: #89023e; stroke: #89023e"/>
    </g>
   </g>
   <g id="matplotlib.axis_1">
    <g id="xtick_1">
     <g id="line2d_1">
      <defs>
       <path id="md35b899ba3" d="M 0 0 
L 0 3.5 
" style="stroke: #000000; stroke-width: 0.8"/>
      </defs>
      <g>
       <use xlink:href="#md35b899ba3" x="113.913535" y="307.584" style="stroke: #000000; stroke-width: 0.8"/>
      </g>
     </g>
     <g id="text_1">
      <!-- Model Counting -->
      <g transform="translate(82.567285 320.66275) scale(0.08 -0.08)">
       <defs>
        <path id="DejaVuSans-4d" d="M 628 4666 
L 1569 4666 
L 2759 1491 
L 3956 4666 
L 4897 4666 
L 4897 0 
L 4281 0 
L 4281 4097 
L 3078 897 
L 2444 897 
L 1241 4097 
L 1241 0 
L 628 0 
L 628 4666 
z
" transform="scale(0.015625)"/>
        <path id="DejaVuSans-6f" d="M 1959 3097 
Q 1497 3097 1228 2736 
Q 959 2375 959 1747 
Q 959 1119 1226 758 
Q 1494 397 1959 397 
Q 2419 397 2687 759 
Q 2956 1122 2956 1747 
Q 2956 2369 2687 2733 
Q 2419 3097 1959 3097 
z
M 1959 3584 
Q 2709 3584 3137 3096 
Q 3566 2609 3566 1747 
Q 3566 888 3137 398 
Q 2709 -91 1959 -91 
Q 1206 -91 779 398 
Q 353 888 353 1747 
Q 353 2609 779 3096 
Q 1206 3584 1959 3584 
z
" transform="scale(0.015625)"/>
        <path id="DejaVuSans-64" d="M 2906 2969 
L 2906 4863 
L 3481 4863 
L 3481 0 
L 2906 0 
L 2906 525 
Q 2725 213 2448 61 
Q 2172 -91 1784 -91 
Q 1150 -91 751 415 
Q 353 922 353 1747 
Q 353 2572 751 3078 
Q 1150 3584 1784 3584 
Q 2172 3584 2448 3432 
Q 2725 3281 2906 2969 
z
M 947 1747 
Q 947 1113 1208 752 
Q 1469 391 1925 391 
Q 2381 391 2643 752 
Q 2906 1113 2906 1747 
Q 2906 2381 2643 2742 
Q 2381 3103 1925 3103 
Q 1469 3103 1208 2742 
Q 947 2381 947 1747 
z
" transform="scale(0.015625)"/>
        <path id="DejaVuSans-65" d="M 3597 1894 
L 3597 1613 
L 953 1613 
Q 991 1019 1311 708 
Q 1631 397 2203 397 
Q 2534 397 2845 478 
Q 3156 559 3463 722 
L 3463 178 
Q 3153 47 2828 -22 
Q 2503 -91 2169 -91 
Q 1331 -91 842 396 
Q 353 884 353 1716 
Q 353 2575 817 3079 
Q 1281 3584 2069 3584 
Q 2775 3584 3186 3129 
Q 3597 2675 3597 1894 
z
M 3022 2063 
Q 3016 2534 2758 2815 
Q 2500 3097 2075 3097 
Q 1594 3097 1305 2825 
Q 1016 2553 972 2059 
L 3022 2063 
z
" transform="scale(0.015625)"/>
        <path id="DejaVuSans-6c" d="M 603 4863 
L 1178 4863 
L 1178 0 
L 603 0 
L 603 4863 
z
" transform="scale(0.015625)"/>
        <path id="DejaVuSans-20" transform="scale(0.015625)"/>
        <path id="DejaVuSans-43" d="M 4122 4306 
L 4122 3641 
Q 3803 3938 3442 4084 
Q 3081 4231 2675 4231 
Q 1875 4231 1450 3742 
Q 1025 3253 1025 2328 
Q 1025 1406 1450 917 
Q 1875 428 2675 428 
Q 3081 428 3442 575 
Q 3803 722 4122 1019 
L 4122 359 
Q 3791 134 3420 21 
Q 3050 -91 2638 -91 
Q 1578 -91 968 557 
Q 359 1206 359 2328 
Q 359 3453 968 4101 
Q 1578 4750 2638 4750 
Q 3056 4750 3426 4639 
Q 3797 4528 4122 4306 
z
" transform="scale(0.015625)"/>
        <path id="DejaVuSans-75" d="M 544 1381 
L 544 3500 
L 1119 3500 
L 1119 1403 
Q 1119 906 1312 657 
Q 1506 409 1894 409 
Q 2359 409 2629 706 
Q 2900 1003 2900 1516 
L 2900 3500 
L 3475 3500 
L 3475 0 
L 2900 0 
L 2900 538 
Q 2691 219 2414 64 
Q 2138 -91 1772 -91 
Q 1169 -91 856 284 
Q 544 659 544 1381 
z
M 1991 3584 
L 1991 3584 
z
" transform="scale(0.015625)"/>
        <path id="DejaVuSans-6e" d="M 3513 2113 
L 3513 0 
L 2938 0 
L 2938 2094 
Q 2938 2591 2744 2837 
Q 2550 3084 2163 3084 
Q 1697 3084 1428 2787 
Q 1159 2491 1159 1978 
L 1159 0 
L 581 0 
L 581 3500 
L 1159 3500 
L 1159 2956 
Q 1366 3272 1645 3428 
Q 1925 3584 2291 3584 
Q 2894 3584 3203 3211 
Q 3513 2838 3513 2113 
z
" transform="scale(0.015625)"/>
        <path id="DejaVuSans-74" d="M 1172 4494 
L 1172 3500 
L 2356 3500 
L 2356 3053 
L 1172 3053 
L 1172 1153 
Q 1172 725 1289 603 
Q 1406 481 1766 481 
L 2356 481 
L 2356 0 
L 1766 0 
Q 1100 0 847 248 
Q 594 497 594 1153 
L 594 3053 
L 172 3053 
L 172 3500 
L 594 3500 
L 594 4494 
L 1172 4494 
z
" transform="scale(0.015625)"/>
        <path id="DejaVuSans-69" d="M 603 3500 
L 1178 3500 
L 1178 0 
L 603 0 
L 603 3500 
z
M 603 4863 
L 1178 4863 
L 1178 4134 
L 603 4134 
L 603 4863 
z
" transform="scale(0.015625)"/>
        <path id="DejaVuSans-67" d="M 2906 1791 
Q 2906 2416 2648 2759 
Q 2391 3103 1925 3103 
Q 1463 3103 1205 2759 
Q 947 2416 947 1791 
Q 947 1169 1205 825 
Q 1463 481 1925 481 
Q 2391 481 2648 825 
Q 2906 1169 2906 1791 
z
M 3481 434 
Q 3481 -459 3084 -895 
Q 2688 -1331 1869 -1331 
Q 1566 -1331 1297 -1286 
Q 1028 -1241 775 -1147 
L 775 -588 
Q 1028 -725 1275 -790 
Q 1522 -856 1778 -856 
Q 2344 -856 2625 -561 
Q 2906 -266 2906 331 
L 2906 616 
Q 2728 306 2450 153 
Q 2172 0 1784 0 
Q 1141 0 747 490 
Q 353 981 353 1791 
Q 353 2603 747 3093 
Q 1141 3584 1784 3584 
Q 2172 3584 2450 3431 
Q 2728 3278 2906 2969 
L 2906 3500 
L 3481 3500 
L 3481 434 
z
" transform="scale(0.015625)"/>
       </defs>
       <use xlink:href="#DejaVuSans-4d"/>
       <use xlink:href="#DejaVuSans-6f" x="86.279297"/>
       <use xlink:href="#DejaVuSans-64" x="147.460938"/>
       <use xlink:href="#DejaVuSans-65" x="210.9375"/>
       <use xlink:href="#DejaVuSans-6c" x="272.460938"/>
       <use xlink:href="#DejaVuSans-20" x="300.244141"/>
       <use xlink:href="#DejaVuSans-43" x="332.03125"/>
       <use xlink:href="#DejaVuSans-6f" x="401.855469"/>
       <use xlink:href="#DejaVuSans-75" x="463.037109"/>
       <use xlink:href="#DejaVuSans-6e" x="526.416016"/>
       <use xlink:href="#DejaVuSans-74" x="589.794922"/>
       <use xlink:href="#DejaVuSans-69" x="629.003906"/>
       <use xlink:href="#DejaVuSans-6e" x="656.787109"/>
       <use xlink:href="#DejaVuSans-67" x="720.166016"/>
      </g>
     </g>
    </g>
    <g id="xtick_2">
     <g id="line2d_2">
      <g>
       <use xlink:href="#md35b899ba3" x="194.075152" y="307.584" style="stroke: #000000; stroke-width: 0.8"/>
      </g>
     </g>
     <g id="text_2">
      <!-- Quantum Circuits -->
      <g transform="translate(159.178277 320.66275) scale(0.08 -0.08)">
       <defs>
        <path id="DejaVuSans-51" d="M 2522 4238 
Q 1834 4238 1429 3725 
Q 1025 3213 1025 2328 
Q 1025 1447 1429 934 
Q 1834 422 2522 422 
Q 3209 422 3611 934 
Q 4013 1447 4013 2328 
Q 4013 3213 3611 3725 
Q 3209 4238 2522 4238 
z
M 3406 84 
L 4238 -825 
L 3475 -825 
L 2784 -78 
Q 2681 -84 2626 -87 
Q 2572 -91 2522 -91 
Q 1538 -91 948 567 
Q 359 1225 359 2328 
Q 359 3434 948 4092 
Q 1538 4750 2522 4750 
Q 3503 4750 4090 4092 
Q 4678 3434 4678 2328 
Q 4678 1516 4351 937 
Q 4025 359 3406 84 
z
" transform="scale(0.015625)"/>
        <path id="DejaVuSans-61" d="M 2194 1759 
Q 1497 1759 1228 1600 
Q 959 1441 959 1056 
Q 959 750 1161 570 
Q 1363 391 1709 391 
Q 2188 391 2477 730 
Q 2766 1069 2766 1631 
L 2766 1759 
L 2194 1759 
z
M 3341 1997 
L 3341 0 
L 2766 0 
L 2766 531 
Q 2569 213 2275 61 
Q 1981 -91 1556 -91 
Q 1019 -91 701 211 
Q 384 513 384 1019 
Q 384 1609 779 1909 
Q 1175 2209 1959 2209 
L 2766 2209 
L 2766 2266 
Q 2766 2663 2505 2880 
Q 2244 3097 1772 3097 
Q 1472 3097 1187 3025 
Q 903 2953 641 2809 
L 641 3341 
Q 956 3463 1253 3523 
Q 1550 3584 1831 3584 
Q 2591 3584 2966 3190 
Q 3341 2797 3341 1997 
z
" transform="scale(0.015625)"/>
        <path id="DejaVuSans-6d" d="M 3328 2828 
Q 3544 3216 3844 3400 
Q 4144 3584 4550 3584 
Q 5097 3584 5394 3201 
Q 5691 2819 5691 2113 
L 5691 0 
L 5113 0 
L 5113 2094 
Q 5113 2597 4934 2840 
Q 4756 3084 4391 3084 
Q 3944 3084 3684 2787 
Q 3425 2491 3425 1978 
L 3425 0 
L 2847 0 
L 2847 2094 
Q 2847 2600 2669 2842 
Q 2491 3084 2119 3084 
Q 1678 3084 1418 2786 
Q 1159 2488 1159 1978 
L 1159 0 
L 581 0 
L 581 3500 
L 1159 3500 
L 1159 2956 
Q 1356 3278 1631 3431 
Q 1906 3584 2284 3584 
Q 2666 3584 2933 3390 
Q 3200 3197 3328 2828 
z
" transform="scale(0.015625)"/>
        <path id="DejaVuSans-72" d="M 2631 2963 
Q 2534 3019 2420 3045 
Q 2306 3072 2169 3072 
Q 1681 3072 1420 2755 
Q 1159 2438 1159 1844 
L 1159 0 
L 581 0 
L 581 3500 
L 1159 3500 
L 1159 2956 
Q 1341 3275 1631 3429 
Q 1922 3584 2338 3584 
Q 2397 3584 2469 3576 
Q 2541 3569 2628 3553 
L 2631 2963 
z
" transform="scale(0.015625)"/>
        <path id="DejaVuSans-63" d="M 3122 3366 
L 3122 2828 
Q 2878 2963 2633 3030 
Q 2388 3097 2138 3097 
Q 1578 3097 1268 2742 
Q 959 2388 959 1747 
Q 959 1106 1268 751 
Q 1578 397 2138 397 
Q 2388 397 2633 464 
Q 2878 531 3122 666 
L 3122 134 
Q 2881 22 2623 -34 
Q 2366 -91 2075 -91 
Q 1284 -91 818 406 
Q 353 903 353 1747 
Q 353 2603 823 3093 
Q 1294 3584 2113 3584 
Q 2378 3584 2631 3529 
Q 2884 3475 3122 3366 
z
" transform="scale(0.015625)"/>
        <path id="DejaVuSans-73" d="M 2834 3397 
L 2834 2853 
Q 2591 2978 2328 3040 
Q 2066 3103 1784 3103 
Q 1356 3103 1142 2972 
Q 928 2841 928 2578 
Q 928 2378 1081 2264 
Q 1234 2150 1697 2047 
L 1894 2003 
Q 2506 1872 2764 1633 
Q 3022 1394 3022 966 
Q 3022 478 2636 193 
Q 2250 -91 1575 -91 
Q 1294 -91 989 -36 
Q 684 19 347 128 
L 347 722 
Q 666 556 975 473 
Q 1284 391 1588 391 
Q 1994 391 2212 530 
Q 2431 669 2431 922 
Q 2431 1156 2273 1281 
Q 2116 1406 1581 1522 
L 1381 1569 
Q 847 1681 609 1914 
Q 372 2147 372 2553 
Q 372 3047 722 3315 
Q 1072 3584 1716 3584 
Q 2034 3584 2315 3537 
Q 2597 3491 2834 3397 
z
" transform="scale(0.015625)"/>
       </defs>
       <use xlink:href="#DejaVuSans-51"/>
       <use xlink:href="#DejaVuSans-75" x="78.710938"/>
       <use xlink:href="#DejaVuSans-61" x="142.089844"/>
       <use xlink:href="#DejaVuSans-6e" x="203.369141"/>
       <use xlink:href="#DejaVuSans-74" x="266.748047"/>
       <use xlink:href="#DejaVuSans-75" x="305.957031"/>
       <use xlink:href="#DejaVuSans-6d" x="369.335938"/>
       <use xlink:href="#DejaVuSans-20" x="466.748047"/>
       <use xlink:href="#DejaVuSans-43" x="498.535156"/>
       <use xlink:href="#DejaVuSans-69" x="568.359375"/>
       <use xlink:href="#DejaVuSans-72" x="596.142578"/>
       <use xlink:href="#DejaVuSans-63" x="635.005859"/>
       <use xlink:href="#DejaVuSans-75" x="689.986328"/>
       <use xlink:href="#DejaVuSans-69" x="753.365234"/>
       <use xlink:href="#DejaVuSans-74" x="781.148438"/>
       <use xlink:href="#DejaVuSans-73" x="820.357422"/>
      </g>
     </g>
    </g>
    <g id="xtick_3">
     <g id="line2d_3">
      <g>
       <use xlink:href="#md35b899ba3" x="274.236768" y="307.584" style="stroke: #000000; stroke-width: 0.8"/>
      </g>
     </g>
     <g id="text_3">
      <!-- Graph Problems -->
      <g transform="translate(242.260518 320.66275) scale(0.08 -0.08)">
       <defs>
        <path id="DejaVuSans-47" d="M 3809 666 
L 3809 1919 
L 2778 1919 
L 2778 2438 
L 4434 2438 
L 4434 434 
Q 4069 175 3628 42 
Q 3188 -91 2688 -91 
Q 1594 -91 976 548 
Q 359 1188 359 2328 
Q 359 3472 976 4111 
Q 1594 4750 2688 4750 
Q 3144 4750 3555 4637 
Q 3966 4525 4313 4306 
L 4313 3634 
Q 3963 3931 3569 4081 
Q 3175 4231 2741 4231 
Q 1884 4231 1454 3753 
Q 1025 3275 1025 2328 
Q 1025 1384 1454 906 
Q 1884 428 2741 428 
Q 3075 428 3337 486 
Q 3600 544 3809 666 
z
" transform="scale(0.015625)"/>
        <path id="DejaVuSans-70" d="M 1159 525 
L 1159 -1331 
L 581 -1331 
L 581 3500 
L 1159 3500 
L 1159 2969 
Q 1341 3281 1617 3432 
Q 1894 3584 2278 3584 
Q 2916 3584 3314 3078 
Q 3713 2572 3713 1747 
Q 3713 922 3314 415 
Q 2916 -91 2278 -91 
Q 1894 -91 1617 61 
Q 1341 213 1159 525 
z
M 3116 1747 
Q 3116 2381 2855 2742 
Q 2594 3103 2138 3103 
Q 1681 3103 1420 2742 
Q 1159 2381 1159 1747 
Q 1159 1113 1420 752 
Q 1681 391 2138 391 
Q 2594 391 2855 752 
Q 3116 1113 3116 1747 
z
" transform="scale(0.015625)"/>
        <path id="DejaVuSans-68" d="M 3513 2113 
L 3513 0 
L 2938 0 
L 2938 2094 
Q 2938 2591 2744 2837 
Q 2550 3084 2163 3084 
Q 1697 3084 1428 2787 
Q 1159 2491 1159 1978 
L 1159 0 
L 581 0 
L 581 4863 
L 1159 4863 
L 1159 2956 
Q 1366 3272 1645 3428 
Q 1925 3584 2291 3584 
Q 2894 3584 3203 3211 
Q 3513 2838 3513 2113 
z
" transform="scale(0.015625)"/>
        <path id="DejaVuSans-50" d="M 1259 4147 
L 1259 2394 
L 2053 2394 
Q 2494 2394 2734 2622 
Q 2975 2850 2975 3272 
Q 2975 3691 2734 3919 
Q 2494 4147 2053 4147 
L 1259 4147 
z
M 628 4666 
L 2053 4666 
Q 2838 4666 3239 4311 
Q 3641 3956 3641 3272 
Q 3641 2581 3239 2228 
Q 2838 1875 2053 1875 
L 1259 1875 
L 1259 0 
L 628 0 
L 628 4666 
z
" transform="scale(0.015625)"/>
        <path id="DejaVuSans-62" d="M 3116 1747 
Q 3116 2381 2855 2742 
Q 2594 3103 2138 3103 
Q 1681 3103 1420 2742 
Q 1159 2381 1159 1747 
Q 1159 1113 1420 752 
Q 1681 391 2138 391 
Q 2594 391 2855 752 
Q 3116 1113 3116 1747 
z
M 1159 2969 
Q 1341 3281 1617 3432 
Q 1894 3584 2278 3584 
Q 2916 3584 3314 3078 
Q 3713 2572 3713 1747 
Q 3713 922 3314 415 
Q 2916 -91 2278 -91 
Q 1894 -91 1617 61 
Q 1341 213 1159 525 
L 1159 0 
L 581 0 
L 581 4863 
L 1159 4863 
L 1159 2969 
z
" transform="scale(0.015625)"/>
       </defs>
       <use xlink:href="#DejaVuSans-47"/>
       <use xlink:href="#DejaVuSans-72" x="77.490234"/>
       <use xlink:href="#DejaVuSans-61" x="118.603516"/>
       <use xlink:href="#DejaVuSans-70" x="179.882812"/>
       <use xlink:href="#DejaVuSans-68" x="243.359375"/>
       <use xlink:href="#DejaVuSans-20" x="306.738281"/>
       <use xlink:href="#DejaVuSans-50" x="338.525391"/>
       <use xlink:href="#DejaVuSans-72" x="397.078125"/>
       <use xlink:href="#DejaVuSans-6f" x="435.941406"/>
       <use xlink:href="#DejaVuSans-62" x="497.123047"/>
       <use xlink:href="#DejaVuSans-6c" x="560.599609"/>
       <use xlink:href="#DejaVuSans-65" x="588.382812"/>
       <use xlink:href="#DejaVuSans-6d" x="649.90625"/>
       <use xlink:href="#DejaVuSans-73" x="747.318359"/>
      </g>
     </g>
    </g>
    <g id="xtick_4">
     <g id="line2d_4">
      <g>
       <use xlink:href="#md35b899ba3" x="354.398384" y="307.584" style="stroke: #000000; stroke-width: 0.8"/>
      </g>
     </g>
     <g id="text_4">
      <!-- Language Models -->
      <g transform="translate(319.291509 320.66275) scale(0.08 -0.08)">
       <defs>
        <path id="DejaVuSans-4c" d="M 628 4666 
L 1259 4666 
L 1259 531 
L 3531 531 
L 3531 0 
L 628 0 
L 628 4666 
z
" transform="scale(0.015625)"/>
       </defs>
       <use xlink:href="#DejaVuSans-4c"/>
       <use xlink:href="#DejaVuSans-61" x="55.712891"/>
       <use xlink:href="#DejaVuSans-6e" x="116.992188"/>
       <use xlink:href="#DejaVuSans-67" x="180.371094"/>
       <use xlink:href="#DejaVuSans-75" x="243.847656"/>
       <use xlink:href="#DejaVuSans-61" x="307.226562"/>
       <use xlink:href="#DejaVuSans-67" x="368.505859"/>
       <use xlink:href="#DejaVuSans-65" x="431.982422"/>
       <use xlink:href="#DejaVuSans-20" x="493.505859"/>
       <use xlink:href="#DejaVuSans-4d" x="525.292969"/>
       <use xlink:href="#DejaVuSans-6f" x="611.572266"/>
       <use xlink:href="#DejaVuSans-64" x="672.753906"/>
       <use xlink:href="#DejaVuSans-65" x="736.230469"/>
       <use xlink:href="#DejaVuSans-6c" x="797.753906"/>
       <use xlink:href="#DejaVuSans-73" x="825.537109"/>
      </g>
     </g>
    </g>
    <g id="text_5">
     <!-- Problems -->
     <g transform="translate(213.115469 333.924937) scale(0.1 -0.1)">
      <use xlink:href="#DejaVuSans-50"/>
      <use xlink:href="#DejaVuSans-72" x="58.552734"/>
      <use xlink:href="#DejaVuSans-6f" x="97.416016"/>
      <use xlink:href="#DejaVuSans-62" x="158.597656"/>
      <use xlink:href="#DejaVuSans-6c" x="222.074219"/>
      <use xlink:href="#DejaVuSans-65" x="249.857422"/>
      <use xlink:href="#DejaVuSans-6d" x="311.380859"/>
      <use xlink:href="#DejaVuSans-73" x="408.792969"/>
     </g>
    </g>
   </g>
   <g id="matplotlib.axis_2">
    <g id="ytick_1">
     <g id="line2d_5">
      <defs>
       <path id="m318aabce90" d="M 0 0 
L -3.5 0 
" style="stroke: #000000; stroke-width: 0.8"/>
      </defs>
      <g>
       <use xlink:href="#m318aabce90" x="57.6" y="277.198693" style="stroke: #000000; stroke-width: 0.8"/>
      </g>
     </g>
     <g id="text_6">
      <!-- $\mathdefault{10^{10}}$ -->
      <g transform="translate(28.5 280.997912) scale(0.1 -0.1)">
       <defs>
        <path id="DejaVuSans-31" d="M 794 531 
L 1825 531 
L 1825 4091 
L 703 3866 
L 703 4441 
L 1819 4666 
L 2450 4666 
L 2450 531 
L 3481 531 
L 3481 0 
L 794 0 
L 794 531 
z
" transform="scale(0.015625)"/>
        <path id="DejaVuSans-30" d="M 2034 4250 
Q 1547 4250 1301 3770 
Q 1056 3291 1056 2328 
Q 1056 1369 1301 889 
Q 1547 409 2034 409 
Q 2525 409 2770 889 
Q 3016 1369 3016 2328 
Q 3016 3291 2770 3770 
Q 2525 4250 2034 4250 
z
M 2034 4750 
Q 2819 4750 3233 4129 
Q 3647 3509 3647 2328 
Q 3647 1150 3233 529 
Q 2819 -91 2034 -91 
Q 1250 -91 836 529 
Q 422 1150 422 2328 
Q 422 3509 836 4129 
Q 1250 4750 2034 4750 
z
" transform="scale(0.015625)"/>
       </defs>
       <use xlink:href="#DejaVuSans-31" transform="translate(0 0.765625)"/>
       <use xlink:href="#DejaVuSans-30" transform="translate(63.623047 0.765625)"/>
       <use xlink:href="#DejaVuSans-31" transform="translate(128.203125 39.046875) scale(0.7)"/>
       <use xlink:href="#DejaVuSans-30" transform="translate(172.739258 39.046875) scale(0.7)"/>
      </g>
     </g>
    </g>
    <g id="ytick_2">
     <g id="line2d_6">
      <g>
       <use xlink:href="#m318aabce90" x="57.6" y="244.277941" style="stroke: #000000; stroke-width: 0.8"/>
      </g>
     </g>
     <g id="text_7">
      <!-- $\mathdefault{10^{19}}$ -->
      <g transform="translate(28.5 248.07716) scale(0.1 -0.1)">
       <defs>
        <path id="DejaVuSans-39" d="M 703 97 
L 703 672 
Q 941 559 1184 500 
Q 1428 441 1663 441 
Q 2288 441 2617 861 
Q 2947 1281 2994 2138 
Q 2813 1869 2534 1725 
Q 2256 1581 1919 1581 
Q 1219 1581 811 2004 
Q 403 2428 403 3163 
Q 403 3881 828 4315 
Q 1253 4750 1959 4750 
Q 2769 4750 3195 4129 
Q 3622 3509 3622 2328 
Q 3622 1225 3098 567 
Q 2575 -91 1691 -91 
Q 1453 -91 1209 -44 
Q 966 3 703 97 
z
M 1959 2075 
Q 2384 2075 2632 2365 
Q 2881 2656 2881 3163 
Q 2881 3666 2632 3958 
Q 2384 4250 1959 4250 
Q 1534 4250 1286 3958 
Q 1038 3666 1038 3163 
Q 1038 2656 1286 2365 
Q 1534 2075 1959 2075 
z
" transform="scale(0.015625)"/>
       </defs>
       <use xlink:href="#DejaVuSans-31" transform="translate(0 0.765625)"/>
       <use xlink:href="#DejaVuSans-30" transform="translate(63.623047 0.765625)"/>
       <use xlink:href="#DejaVuSans-31" transform="translate(128.203125 39.046875) scale(0.7)"/>
       <use xlink:href="#DejaVuSans-39" transform="translate(172.739258 39.046875) scale(0.7)"/>
      </g>
     </g>
    </g>
    <g id="ytick_3">
     <g id="line2d_7">
      <g>
       <use xlink:href="#m318aabce90" x="57.6" y="211.357189" style="stroke: #000000; stroke-width: 0.8"/>
      </g>
     </g>
     <g id="text_8">
      <!-- $\mathdefault{10^{28}}$ -->
      <g transform="translate(28.5 215.156407) scale(0.1 -0.1)">
       <defs>
        <path id="DejaVuSans-32" d="M 1228 531 
L 3431 531 
L 3431 0 
L 469 0 
L 469 531 
Q 828 903 1448 1529 
Q 2069 2156 2228 2338 
Q 2531 2678 2651 2914 
Q 2772 3150 2772 3378 
Q 2772 3750 2511 3984 
Q 2250 4219 1831 4219 
Q 1534 4219 1204 4116 
Q 875 4013 500 3803 
L 500 4441 
Q 881 4594 1212 4672 
Q 1544 4750 1819 4750 
Q 2544 4750 2975 4387 
Q 3406 4025 3406 3419 
Q 3406 3131 3298 2873 
Q 3191 2616 2906 2266 
Q 2828 2175 2409 1742 
Q 1991 1309 1228 531 
z
" transform="scale(0.015625)"/>
        <path id="DejaVuSans-38" d="M 2034 2216 
Q 1584 2216 1326 1975 
Q 1069 1734 1069 1313 
Q 1069 891 1326 650 
Q 1584 409 2034 409 
Q 2484 409 2743 651 
Q 3003 894 3003 1313 
Q 3003 1734 2745 1975 
Q 2488 2216 2034 2216 
z
M 1403 2484 
Q 997 2584 770 2862 
Q 544 3141 544 3541 
Q 544 4100 942 4425 
Q 1341 4750 2034 4750 
Q 2731 4750 3128 4425 
Q 3525 4100 3525 3541 
Q 3525 3141 3298 2862 
Q 3072 2584 2669 2484 
Q 3125 2378 3379 2068 
Q 3634 1759 3634 1313 
Q 3634 634 3220 271 
Q 2806 -91 2034 -91 
Q 1263 -91 848 271 
Q 434 634 434 1313 
Q 434 1759 690 2068 
Q 947 2378 1403 2484 
z
M 1172 3481 
Q 1172 3119 1398 2916 
Q 1625 2713 2034 2713 
Q 2441 2713 2670 2916 
Q 2900 3119 2900 3481 
Q 2900 3844 2670 4047 
Q 2441 4250 2034 4250 
Q 1625 4250 1398 4047 
Q 1172 3844 1172 3481 
z
" transform="scale(0.015625)"/>
       </defs>
       <use xlink:href="#DejaVuSans-31" transform="translate(0 0.765625)"/>
       <use xlink:href="#DejaVuSans-30" transform="translate(63.623047 0.765625)"/>
       <use xlink:href="#DejaVuSans-32" transform="translate(128.203125 39.046875) scale(0.7)"/>
       <use xlink:href="#DejaVuSans-38" transform="translate(172.739258 39.046875) scale(0.7)"/>
      </g>
     </g>
    </g>
    <g id="ytick_4">
     <g id="line2d_8">
      <g>
       <use xlink:href="#m318aabce90" x="57.6" y="178.436436" style="stroke: #000000; stroke-width: 0.8"/>
      </g>
     </g>
     <g id="text_9">
      <!-- $\mathdefault{10^{37}}$ -->
      <g transform="translate(28.5 182.235655) scale(0.1 -0.1)">
       <defs>
        <path id="DejaVuSans-33" d="M 2597 2516 
Q 3050 2419 3304 2112 
Q 3559 1806 3559 1356 
Q 3559 666 3084 287 
Q 2609 -91 1734 -91 
Q 1441 -91 1130 -33 
Q 819 25 488 141 
L 488 750 
Q 750 597 1062 519 
Q 1375 441 1716 441 
Q 2309 441 2620 675 
Q 2931 909 2931 1356 
Q 2931 1769 2642 2001 
Q 2353 2234 1838 2234 
L 1294 2234 
L 1294 2753 
L 1863 2753 
Q 2328 2753 2575 2939 
Q 2822 3125 2822 3475 
Q 2822 3834 2567 4026 
Q 2313 4219 1838 4219 
Q 1578 4219 1281 4162 
Q 984 4106 628 3988 
L 628 4550 
Q 988 4650 1302 4700 
Q 1616 4750 1894 4750 
Q 2613 4750 3031 4423 
Q 3450 4097 3450 3541 
Q 3450 3153 3228 2886 
Q 3006 2619 2597 2516 
z
" transform="scale(0.015625)"/>
        <path id="DejaVuSans-37" d="M 525 4666 
L 3525 4666 
L 3525 4397 
L 1831 0 
L 1172 0 
L 2766 4134 
L 525 4134 
L 525 4666 
z
" transform="scale(0.015625)"/>
       </defs>
       <use xlink:href="#DejaVuSans-31" transform="translate(0 0.765625)"/>
       <use xlink:href="#DejaVuSans-30" transform="translate(63.623047 0.765625)"/>
       <use xlink:href="#DejaVuSans-33" transform="translate(128.203125 39.046875) scale(0.7)"/>
       <use xlink:href="#DejaVuSans-37" transform="translate(172.739258 39.046875) scale(0.7)"/>
      </g>
     </g>
    </g>
    <g id="ytick_5">
     <g id="line2d_9">
      <g>
       <use xlink:href="#m318aabce90" x="57.6" y="145.515684" style="stroke: #000000; stroke-width: 0.8"/>
      </g>
     </g>
     <g id="text_10">
      <!-- $\mathdefault{10^{46}}$ -->
      <g transform="translate(28.5 149.314903) scale(0.1 -0.1)">
       <defs>
        <path id="DejaVuSans-34" d="M 2419 4116 
L 825 1625 
L 2419 1625 
L 2419 4116 
z
M 2253 4666 
L 3047 4666 
L 3047 1625 
L 3713 1625 
L 3713 1100 
L 3047 1100 
L 3047 0 
L 2419 0 
L 2419 1100 
L 313 1100 
L 313 1709 
L 2253 4666 
z
" transform="scale(0.015625)"/>
        <path id="DejaVuSans-36" d="M 2113 2584 
Q 1688 2584 1439 2293 
Q 1191 2003 1191 1497 
Q 1191 994 1439 701 
Q 1688 409 2113 409 
Q 2538 409 2786 701 
Q 3034 994 3034 1497 
Q 3034 2003 2786 2293 
Q 2538 2584 2113 2584 
z
M 3366 4563 
L 3366 3988 
Q 3128 4100 2886 4159 
Q 2644 4219 2406 4219 
Q 1781 4219 1451 3797 
Q 1122 3375 1075 2522 
Q 1259 2794 1537 2939 
Q 1816 3084 2150 3084 
Q 2853 3084 3261 2657 
Q 3669 2231 3669 1497 
Q 3669 778 3244 343 
Q 2819 -91 2113 -91 
Q 1303 -91 875 529 
Q 447 1150 447 2328 
Q 447 3434 972 4092 
Q 1497 4750 2381 4750 
Q 2619 4750 2861 4703 
Q 3103 4656 3366 4563 
z
" transform="scale(0.015625)"/>
       </defs>
       <use xlink:href="#DejaVuSans-31" transform="translate(0 0.765625)"/>
       <use xlink:href="#DejaVuSans-30" transform="translate(63.623047 0.765625)"/>
       <use xlink:href="#DejaVuSans-34" transform="translate(128.203125 39.046875) scale(0.7)"/>
       <use xlink:href="#DejaVuSans-36" transform="translate(172.739258 39.046875) scale(0.7)"/>
      </g>
     </g>
    </g>
    <g id="ytick_6">
     <g id="line2d_10">
      <g>
       <use xlink:href="#m318aabce90" x="57.6" y="112.594932" style="stroke: #000000; stroke-width: 0.8"/>
      </g>
     </g>
     <g id="text_11">
      <!-- $\mathdefault{10^{55}}$ -->
      <g transform="translate(28.5 116.394151) scale(0.1 -0.1)">
       <defs>
        <path id="DejaVuSans-35" d="M 691 4666 
L 3169 4666 
L 3169 4134 
L 1269 4134 
L 1269 2991 
Q 1406 3038 1543 3061 
Q 1681 3084 1819 3084 
Q 2600 3084 3056 2656 
Q 3513 2228 3513 1497 
Q 3513 744 3044 326 
Q 2575 -91 1722 -91 
Q 1428 -91 1123 -41 
Q 819 9 494 109 
L 494 744 
Q 775 591 1075 516 
Q 1375 441 1709 441 
Q 2250 441 2565 725 
Q 2881 1009 2881 1497 
Q 2881 1984 2565 2268 
Q 2250 2553 1709 2553 
Q 1456 2553 1204 2497 
Q 953 2441 691 2322 
L 691 4666 
z
" transform="scale(0.015625)"/>
       </defs>
       <use xlink:href="#DejaVuSans-31" transform="translate(0 0.684375)"/>
       <use xlink:href="#DejaVuSans-30" transform="translate(63.623047 0.684375)"/>
       <use xlink:href="#DejaVuSans-35" transform="translate(128.203125 38.965625) scale(0.7)"/>
       <use xlink:href="#DejaVuSans-35" transform="translate(172.739258 38.965625) scale(0.7)"/>
      </g>
     </g>
    </g>
    <g id="ytick_7">
     <g id="line2d_11">
      <g>
       <use xlink:href="#m318aabce90" x="57.6" y="79.67418" style="stroke: #000000; stroke-width: 0.8"/>
      </g>
     </g>
     <g id="text_12">
      <!-- $\mathdefault{10^{64}}$ -->
      <g transform="translate(28.5 83.473398) scale(0.1 -0.1)">
       <use xlink:href="#DejaVuSans-31" transform="translate(0 0.765625)"/>
       <use xlink:href="#DejaVuSans-30" transform="translate(63.623047 0.765625)"/>
       <use xlink:href="#DejaVuSans-36" transform="translate(128.203125 39.046875) scale(0.7)"/>
       <use xlink:href="#DejaVuSans-34" transform="translate(172.739258 39.046875) scale(0.7)"/>
      </g>
     </g>
    </g>
    <g id="ytick_8">
     <g id="line2d_12">
      <g>
       <use xlink:href="#m318aabce90" x="57.6" y="46.753427" style="stroke: #000000; stroke-width: 0.8"/>
      </g>
     </g>
     <g id="text_13">
      <!-- $\mathdefault{10^{73}}$ -->
      <g transform="translate(28.5 50.552646) scale(0.1 -0.1)">
       <use xlink:href="#DejaVuSans-31" transform="translate(0 0.765625)"/>
       <use xlink:href="#DejaVuSans-30" transform="translate(63.623047 0.765625)"/>
       <use xlink:href="#DejaVuSans-37" transform="translate(128.203125 39.046875) scale(0.7)"/>
       <use xlink:href="#DejaVuSans-33" transform="translate(172.739258 39.046875) scale(0.7)"/>
      </g>
     </g>
    </g>
    <g id="text_14">
     <!-- Flops log 10 -->
     <g transform="translate(22.420312 204.794406) rotate(-90) scale(0.1 -0.1)">
      <defs>
       <path id="DejaVuSans-46" d="M 628 4666 
L 3309 4666 
L 3309 4134 
L 1259 4134 
L 1259 2759 
L 3109 2759 
L 3109 2228 
L 1259 2228 
L 1259 0 
L 628 0 
L 628 4666 
z
" transform="scale(0.015625)"/>
      </defs>
      <use xlink:href="#DejaVuSans-46"/>
      <use xlink:href="#DejaVuSans-6c" x="57.519531"/>
      <use xlink:href="#DejaVuSans-6f" x="85.302734"/>
      <use xlink:href="#DejaVuSans-70" x="146.484375"/>
      <use xlink:href="#DejaVuSans-73" x="209.960938"/>
      <use xlink:href="#DejaVuSans-20" x="262.060547"/>
      <use xlink:href="#DejaVuSans-6c" x="293.847656"/>
      <use xlink:href="#DejaVuSans-6f" x="321.630859"/>
      <use xlink:href="#DejaVuSans-67" x="382.8125"/>
      <use xlink:href="#DejaVuSans-20" x="446.289062"/>
      <use xlink:href="#DejaVuSans-31" x="478.076172"/>
      <use xlink:href="#DejaVuSans-30" x="541.699219"/>
     </g>
    </g>
   </g>
   <g id="line2d_13">
    <path d="M 73.832727 307.584 
L 73.832727 41.472 
" clip-path="url(#pba92da58e4)" style="fill: none; stroke-dasharray: 2.96,1.28; stroke-dashoffset: 0; stroke: #e0dfd5; stroke-width: 0.8"/>
   </g>
   <g id="line2d_14">
    <path d="M 158.002424 307.584 
L 158.002424 41.472 
" clip-path="url(#pba92da58e4)" style="fill: none; stroke-dasharray: 2.96,1.28; stroke-dashoffset: 0; stroke: #e0dfd5; stroke-width: 0.8"/>
   </g>
   <g id="line2d_15">
    <path d="M 238.16404 307.584 
L 238.16404 41.472 
" clip-path="url(#pba92da58e4)" style="fill: none; stroke-dasharray: 2.96,1.28; stroke-dashoffset: 0; stroke: #e0dfd5; stroke-width: 0.8"/>
   </g>
   <g id="line2d_16">
    <path d="M 318.325657 307.584 
L 318.325657 41.472 
" clip-path="url(#pba92da58e4)" style="fill: none; stroke-dasharray: 2.96,1.28; stroke-dashoffset: 0; stroke: #e0dfd5; stroke-width: 0.8"/>
   </g>
   <g id="line2d_17">
    <path d="M 398.487273 307.584 
L 398.487273 41.472 
" clip-path="url(#pba92da58e4)" style="fill: none; stroke-dasharray: 2.96,1.28; stroke-dashoffset: 0; stroke: #e0dfd5; stroke-width: 0.8"/>
   </g>
   <g id="line2d_18">
    <path d="M 73.832727 295.488 
" clip-path="url(#pba92da58e4)" style="fill: none; stroke: #ffffff; stroke-width: 1.5; stroke-linecap: square"/>
   </g>
   <g id="patch_3">
    <path d="M 57.6 307.584 
L 57.6 41.472 
" style="fill: none; stroke: #000000; stroke-width: 0.8; stroke-linejoin: miter; stroke-linecap: square"/>
   </g>
   <g id="patch_4">
    <path d="M 414.72 307.584 
L 414.72 41.472 
" style="fill: none; stroke: #000000; stroke-width: 0.8; stroke-linejoin: miter; stroke-linecap: square"/>
   </g>
   <g id="patch_5">
    <path d="M 57.6 307.584 
L 414.72 307.584 
" style="fill: none; stroke: #000000; stroke-width: 0.8; stroke-linejoin: miter; stroke-linecap: square"/>
   </g>
   <g id="patch_6">
    <path d="M 57.6 41.472 
L 414.72 41.472 
" style="fill: none; stroke: #000000; stroke-width: 0.8; stroke-linejoin: miter; stroke-linecap: square"/>
   </g>
   <g id="text_15">
    <!-- Results with timeout 1 second -->
    <g transform="translate(145.542188 35.472) scale(0.12 -0.12)">
     <defs>
      <path id="DejaVuSans-52" d="M 2841 2188 
Q 3044 2119 3236 1894 
Q 3428 1669 3622 1275 
L 4263 0 
L 3584 0 
L 2988 1197 
Q 2756 1666 2539 1819 
Q 2322 1972 1947 1972 
L 1259 1972 
L 1259 0 
L 628 0 
L 628 4666 
L 2053 4666 
Q 2853 4666 3247 4331 
Q 3641 3997 3641 3322 
Q 3641 2881 3436 2590 
Q 3231 2300 2841 2188 
z
M 1259 4147 
L 1259 2491 
L 2053 2491 
Q 2509 2491 2742 2702 
Q 2975 2913 2975 3322 
Q 2975 3731 2742 3939 
Q 2509 4147 2053 4147 
L 1259 4147 
z
" transform="scale(0.015625)"/>
      <path id="DejaVuSans-77" d="M 269 3500 
L 844 3500 
L 1563 769 
L 2278 3500 
L 2956 3500 
L 3675 769 
L 4391 3500 
L 4966 3500 
L 4050 0 
L 3372 0 
L 2619 2869 
L 1863 0 
L 1184 0 
L 269 3500 
z
" transform="scale(0.015625)"/>
     </defs>
     <use xlink:href="#DejaVuSans-52"/>
     <use xlink:href="#DejaVuSans-65" x="64.982422"/>
     <use xlink:href="#DejaVuSans-73" x="126.505859"/>
     <use xlink:href="#DejaVuSans-75" x="178.605469"/>
     <use xlink:href="#DejaVuSans-6c" x="241.984375"/>
     <use xlink:href="#DejaVuSans-74" x="269.767578"/>
     <use xlink:href="#DejaVuSans-73" x="308.976562"/>
     <use xlink:href="#DejaVuSans-20" x="361.076172"/>
     <use xlink:href="#DejaVuSans-77" x="392.863281"/>
     <use xlink:href="#DejaVuSans-69" x="474.650391"/>
     <use xlink:href="#DejaVuSans-74" x="502.433594"/>
     <use xlink:href="#DejaVuSans-68" x="541.642578"/>
     <use xlink:href="#DejaVuSans-20" x="605.021484"/>
     <use xlink:href="#DejaVuSans-74" x="636.808594"/>
     <use xlink:href="#DejaVuSans-69" x="676.017578"/>
     <use xlink:href="#DejaVuSans-6d" x="703.800781"/>
     <use xlink:href="#DejaVuSans-65" x="801.212891"/>
     <use xlink:href="#DejaVuSans-6f" x="862.736328"/>
     <use xlink:href="#DejaVuSans-75" x="923.917969"/>
     <use xlink:href="#DejaVuSans-74" x="987.296875"/>
     <use xlink:href="#DejaVuSans-20" x="1026.505859"/>
     <use xlink:href="#DejaVuSans-31" x="1058.292969"/>
     <use xlink:href="#DejaVuSans-20" x="1121.916016"/>
     <use xlink:href="#DejaVuSans-73" x="1153.703125"/>
     <use xlink:href="#DejaVuSans-65" x="1205.802734"/>
     <use xlink:href="#DejaVuSans-63" x="1267.326172"/>
     <use xlink:href="#DejaVuSans-6f" x="1322.306641"/>
     <use xlink:href="#DejaVuSans-6e" x="1383.488281"/>
     <use xlink:href="#DejaVuSans-64" x="1446.867188"/>
    </g>
   </g>
   <g id="legend_1">
    <g id="patch_7">
     <path d="M 287.85125 108.306375 
L 407.72 108.306375 
Q 409.72 108.306375 409.72 106.306375 
L 409.72 48.472 
Q 409.72 46.472 407.72 46.472 
L 287.85125 46.472 
Q 285.85125 46.472 285.85125 48.472 
L 285.85125 106.306375 
Q 285.85125 108.306375 287.85125 108.306375 
z
" style="fill: #ffffff; opacity: 0.8; stroke: #cccccc; stroke-linejoin: miter"/>
    </g>
    <g id="PathCollection_17">
     <g>
      <use xlink:href="#md1806e4293" x="299.85125" y="55.445438" style="fill: #508ca4; stroke: #508ca4"/>
     </g>
    </g>
    <g id="text_16">
     <!-- OEGreedy -->
     <g transform="translate(317.85125 58.070438) scale(0.1 -0.1)">
      <defs>
       <path id="DejaVuSans-4f" d="M 2522 4238 
Q 1834 4238 1429 3725 
Q 1025 3213 1025 2328 
Q 1025 1447 1429 934 
Q 1834 422 2522 422 
Q 3209 422 3611 934 
Q 4013 1447 4013 2328 
Q 4013 3213 3611 3725 
Q 3209 4238 2522 4238 
z
M 2522 4750 
Q 3503 4750 4090 4092 
Q 4678 3434 4678 2328 
Q 4678 1225 4090 567 
Q 3503 -91 2522 -91 
Q 1538 -91 948 565 
Q 359 1222 359 2328 
Q 359 3434 948 4092 
Q 1538 4750 2522 4750 
z
" transform="scale(0.015625)"/>
       <path id="DejaVuSans-45" d="M 628 4666 
L 3578 4666 
L 3578 4134 
L 1259 4134 
L 1259 2753 
L 3481 2753 
L 3481 2222 
L 1259 2222 
L 1259 531 
L 3634 531 
L 3634 0 
L 628 0 
L 628 4666 
z
" transform="scale(0.015625)"/>
       <path id="DejaVuSans-79" d="M 2059 -325 
Q 1816 -950 1584 -1140 
Q 1353 -1331 966 -1331 
L 506 -1331 
L 506 -850 
L 844 -850 
Q 1081 -850 1212 -737 
Q 1344 -625 1503 -206 
L 1606 56 
L 191 3500 
L 800 3500 
L 1894 763 
L 2988 3500 
L 3597 3500 
L 2059 -325 
z
" transform="scale(0.015625)"/>
      </defs>
      <use xlink:href="#DejaVuSans-4f"/>
      <use xlink:href="#DejaVuSans-45" x="78.710938"/>
      <use xlink:href="#DejaVuSans-47" x="141.894531"/>
      <use xlink:href="#DejaVuSans-72" x="219.384766"/>
      <use xlink:href="#DejaVuSans-65" x="258.248047"/>
      <use xlink:href="#DejaVuSans-65" x="319.771484"/>
      <use xlink:href="#DejaVuSans-64" x="381.294922"/>
      <use xlink:href="#DejaVuSans-79" x="444.771484"/>
     </g>
    </g>
    <g id="PathCollection_18">
     <g>
      <use xlink:href="#m0cbccf3789" x="299.85125" y="70.125125" style="fill: #1d2d44; stroke: #1d2d44"/>
     </g>
    </g>
    <g id="text_17">
     <!-- $\mathbf{OurGreedy}$ -->
     <g transform="translate(317.85125 72.750125) scale(0.1 -0.1)">
      <defs>
       <path id="DejaVuSans-Bold-4f" d="M 2719 3878 
Q 2169 3878 1866 3472 
Q 1563 3066 1563 2328 
Q 1563 1594 1866 1187 
Q 2169 781 2719 781 
Q 3272 781 3575 1187 
Q 3878 1594 3878 2328 
Q 3878 3066 3575 3472 
Q 3272 3878 2719 3878 
z
M 2719 4750 
Q 3844 4750 4481 4106 
Q 5119 3463 5119 2328 
Q 5119 1197 4481 553 
Q 3844 -91 2719 -91 
Q 1597 -91 958 553 
Q 319 1197 319 2328 
Q 319 3463 958 4106 
Q 1597 4750 2719 4750 
z
" transform="scale(0.015625)"/>
       <path id="DejaVuSans-Bold-75" d="M 500 1363 
L 500 3500 
L 1625 3500 
L 1625 3150 
Q 1625 2866 1622 2436 
Q 1619 2006 1619 1863 
Q 1619 1441 1641 1255 
Q 1663 1069 1716 984 
Q 1784 875 1895 815 
Q 2006 756 2150 756 
Q 2500 756 2700 1025 
Q 2900 1294 2900 1772 
L 2900 3500 
L 4019 3500 
L 4019 0 
L 2900 0 
L 2900 506 
Q 2647 200 2364 54 
Q 2081 -91 1741 -91 
Q 1134 -91 817 281 
Q 500 653 500 1363 
z
" transform="scale(0.015625)"/>
       <path id="DejaVuSans-Bold-72" d="M 3138 2547 
Q 2991 2616 2845 2648 
Q 2700 2681 2553 2681 
Q 2122 2681 1889 2404 
Q 1656 2128 1656 1613 
L 1656 0 
L 538 0 
L 538 3500 
L 1656 3500 
L 1656 2925 
Q 1872 3269 2151 3426 
Q 2431 3584 2822 3584 
Q 2878 3584 2943 3579 
Q 3009 3575 3134 3559 
L 3138 2547 
z
" transform="scale(0.015625)"/>
       <path id="DejaVuSans-Bold-47" d="M 4781 347 
Q 4331 128 3847 18 
Q 3363 -91 2847 -91 
Q 1681 -91 1000 561 
Q 319 1213 319 2328 
Q 319 3456 1012 4103 
Q 1706 4750 2913 4750 
Q 3378 4750 3804 4662 
Q 4231 4575 4609 4403 
L 4609 3438 
Q 4219 3659 3833 3768 
Q 3447 3878 3059 3878 
Q 2341 3878 1952 3476 
Q 1563 3075 1563 2328 
Q 1563 1588 1938 1184 
Q 2313 781 3003 781 
Q 3191 781 3352 804 
Q 3513 828 3641 878 
L 3641 1784 
L 2906 1784 
L 2906 2591 
L 4781 2591 
L 4781 347 
z
" transform="scale(0.015625)"/>
       <path id="DejaVuSans-Bold-65" d="M 4031 1759 
L 4031 1441 
L 1416 1441 
Q 1456 1047 1700 850 
Q 1944 653 2381 653 
Q 2734 653 3104 758 
Q 3475 863 3866 1075 
L 3866 213 
Q 3469 63 3072 -14 
Q 2675 -91 2278 -91 
Q 1328 -91 801 392 
Q 275 875 275 1747 
Q 275 2603 792 3093 
Q 1309 3584 2216 3584 
Q 3041 3584 3536 3087 
Q 4031 2591 4031 1759 
z
M 2881 2131 
Q 2881 2450 2695 2645 
Q 2509 2841 2209 2841 
Q 1884 2841 1681 2658 
Q 1478 2475 1428 2131 
L 2881 2131 
z
" transform="scale(0.015625)"/>
       <path id="DejaVuSans-Bold-64" d="M 2919 2988 
L 2919 4863 
L 4044 4863 
L 4044 0 
L 2919 0 
L 2919 506 
Q 2688 197 2409 53 
Q 2131 -91 1766 -91 
Q 1119 -91 703 423 
Q 288 938 288 1747 
Q 288 2556 703 3070 
Q 1119 3584 1766 3584 
Q 2128 3584 2408 3439 
Q 2688 3294 2919 2988 
z
M 2181 722 
Q 2541 722 2730 984 
Q 2919 1247 2919 1747 
Q 2919 2247 2730 2509 
Q 2541 2772 2181 2772 
Q 1825 2772 1636 2509 
Q 1447 2247 1447 1747 
Q 1447 1247 1636 984 
Q 1825 722 2181 722 
z
" transform="scale(0.015625)"/>
       <path id="DejaVuSans-Bold-79" d="M 78 3500 
L 1197 3500 
L 2138 1125 
L 2938 3500 
L 4056 3500 
L 2584 -331 
Q 2363 -916 2067 -1148 
Q 1772 -1381 1288 -1381 
L 641 -1381 
L 641 -647 
L 991 -647 
Q 1275 -647 1404 -556 
Q 1534 -466 1606 -231 
L 1638 -134 
L 78 3500 
z
" transform="scale(0.015625)"/>
      </defs>
      <use xlink:href="#DejaVuSans-Bold-4f" transform="translate(0 0.015625)"/>
      <use xlink:href="#DejaVuSans-Bold-75" transform="translate(85.009766 0.015625)"/>
      <use xlink:href="#DejaVuSans-Bold-72" transform="translate(156.201172 0.015625)"/>
      <use xlink:href="#DejaVuSans-Bold-47" transform="translate(205.517578 0.015625)"/>
      <use xlink:href="#DejaVuSans-Bold-72" transform="translate(287.597656 0.015625)"/>
      <use xlink:href="#DejaVuSans-Bold-65" transform="translate(336.914062 0.015625)"/>
      <use xlink:href="#DejaVuSans-Bold-65" transform="translate(404.736328 0.015625)"/>
      <use xlink:href="#DejaVuSans-Bold-64" transform="translate(472.558594 0.015625)"/>
      <use xlink:href="#DejaVuSans-Bold-79" transform="translate(544.140625 0.015625)"/>
     </g>
    </g>
    <g id="PathCollection_19">
     <g>
      <use xlink:href="#mddd4aca513" x="299.85125" y="84.923563" style="fill: #cc7178; stroke: #cc7178"/>
     </g>
    </g>
    <g id="text_18">
     <!-- CotengraGreedy -->
     <g transform="translate(317.85125 87.548563) scale(0.1 -0.1)">
      <use xlink:href="#DejaVuSans-43"/>
      <use xlink:href="#DejaVuSans-6f" x="69.824219"/>
      <use xlink:href="#DejaVuSans-74" x="131.005859"/>
      <use xlink:href="#DejaVuSans-65" x="170.214844"/>
      <use xlink:href="#DejaVuSans-6e" x="231.738281"/>
      <use xlink:href="#DejaVuSans-67" x="295.117188"/>
      <use xlink:href="#DejaVuSans-72" x="358.59375"/>
      <use xlink:href="#DejaVuSans-61" x="399.707031"/>
      <use xlink:href="#DejaVuSans-47" x="460.986328"/>
      <use xlink:href="#DejaVuSans-72" x="538.476562"/>
      <use xlink:href="#DejaVuSans-65" x="577.339844"/>
      <use xlink:href="#DejaVuSans-65" x="638.863281"/>
      <use xlink:href="#DejaVuSans-64" x="700.386719"/>
      <use xlink:href="#DejaVuSans-79" x="763.863281"/>
     </g>
    </g>
    <g id="PathCollection_20">
     <g>
      <use xlink:href="#m2703d547b7" x="299.85125" y="99.601688" style="fill: #89023e; stroke: #89023e"/>
     </g>
    </g>
    <g id="text_19">
     <!-- CotengraKaHyPar -->
     <g transform="translate(317.85125 102.226688) scale(0.1 -0.1)">
      <defs>
       <path id="DejaVuSans-4b" d="M 628 4666 
L 1259 4666 
L 1259 2694 
L 3353 4666 
L 4166 4666 
L 1850 2491 
L 4331 0 
L 3500 0 
L 1259 2247 
L 1259 0 
L 628 0 
L 628 4666 
z
" transform="scale(0.015625)"/>
       <path id="DejaVuSans-48" d="M 628 4666 
L 1259 4666 
L 1259 2753 
L 3553 2753 
L 3553 4666 
L 4184 4666 
L 4184 0 
L 3553 0 
L 3553 2222 
L 1259 2222 
L 1259 0 
L 628 0 
L 628 4666 
z
" transform="scale(0.015625)"/>
      </defs>
      <use xlink:href="#DejaVuSans-43"/>
      <use xlink:href="#DejaVuSans-6f" x="69.824219"/>
      <use xlink:href="#DejaVuSans-74" x="131.005859"/>
      <use xlink:href="#DejaVuSans-65" x="170.214844"/>
      <use xlink:href="#DejaVuSans-6e" x="231.738281"/>
      <use xlink:href="#DejaVuSans-67" x="295.117188"/>
      <use xlink:href="#DejaVuSans-72" x="358.59375"/>
      <use xlink:href="#DejaVuSans-61" x="399.707031"/>
      <use xlink:href="#DejaVuSans-4b" x="460.986328"/>
      <use xlink:href="#DejaVuSans-61" x="524.8125"/>
      <use xlink:href="#DejaVuSans-48" x="586.091797"/>
      <use xlink:href="#DejaVuSans-79" x="661.287109"/>
      <use xlink:href="#DejaVuSans-50" x="720.466797"/>
      <use xlink:href="#DejaVuSans-61" x="776.269531"/>
      <use xlink:href="#DejaVuSans-72" x="837.548828"/>
     </g>
    </g>
   </g>
  </g>
 </g>
 <defs>
  <clipPath id="pba92da58e4">
   <rect x="57.6" y="41.472" width="357.12" height="266.112"/>
  </clipPath>
 </defs>
</svg>
